<?xml version="1.0" encoding="UTF-8" standalone="no"?>
<!DOCTYPE svg PUBLIC "-//W3C//DTD SVG 1.1//EN"
 "http://www.w3.org/Graphics/SVG/1.1/DTD/svg11.dtd">
<!-- Generated by graphviz version 12.1.1 (20240910.0053)
 -->
<!-- Title: INFRA Pages: 1 -->
<svg width="896pt" height="404pt"
 viewBox="0.00 0.00 896.38 404.00" xmlns="http://www.w3.org/2000/svg" xmlns:xlink="http://www.w3.org/1999/xlink">
<g id="graph0" class="graph" transform="scale(1 1) rotate(0) translate(4 400)">
<title>INFRA</title>
<polygon fill="white" stroke="none" points="-4,4 -4,-400 892.38,-400 892.38,4 -4,4"/>
<!-- JoyToken -->
<g id="node1" class="node">
<title>JoyToken</title>
<path fill="#e6e6e6" stroke="black" stroke-width="2" d="M449.6,-72C449.6,-72 316.78,-72 316.78,-72 310.78,-72 304.78,-66 304.78,-60 304.78,-60 304.78,-12 304.78,-12 304.78,-6 310.78,0 316.78,0 316.78,0 449.6,0 449.6,0 455.6,0 461.6,-6 461.6,-12 461.6,-12 461.6,-60 461.6,-60 461.6,-66 455.6,-72 449.6,-72"/>
<text text-anchor="middle" x="383.19" y="-40.2" font-family="Arial" font-size="14.00">JoyToken</text>
<text text-anchor="middle" x="383.19" y="-23.4" font-family="Arial" font-size="14.00">(AWS::ERC20::Token)</text>
</g>
<!-- Identity -->
<g id="node2" class="node">
<title>Identity</title>
<path fill="#e6e6e6" stroke="black" stroke-width="2" d="M378.38,-180C378.38,-180 216,-180 216,-180 210,-180 204,-174 204,-168 204,-168 204,-120 204,-120 204,-114 210,-108 216,-108 216,-108 378.38,-108 378.38,-108 384.38,-108 390.38,-114 390.38,-120 390.38,-120 390.38,-168 390.38,-168 390.38,-174 384.38,-180 378.38,-180"/>
<text text-anchor="middle" x="297.19" y="-148.2" font-family="Arial" font-size="14.00">Identity</text>
<text text-anchor="middle" x="297.19" y="-131.4" font-family="Arial" font-size="14.00">(AWS::Ethereum::Contract)</text>
</g>
<!-- ZKVerifier -->
<g id="node3" class="node">
<title>ZKVerifier</title>
<path fill="#e6e6e6" stroke="black" stroke-width="2" d="M654.38,-72C654.38,-72 492,-72 492,-72 486,-72 480,-66 480,-60 480,-60 480,-12 480,-12 480,-6 486,0 492,0 492,0 654.38,0 654.38,0 660.38,0 666.38,-6 666.38,-12 666.38,-12 666.38,-60 666.38,-60 666.38,-66 660.38,-72 654.38,-72"/>
<text text-anchor="middle" x="573.19" y="-40.2" font-family="Arial" font-size="14.00">ZKVerifier</text>
<text text-anchor="middle" x="573.19" y="-23.4" font-family="Arial" font-size="14.00">(AWS::Ethereum::Contract)</text>
</g>
<!-- ProofOfInference -->
<g id="node4" class="node">
<title>ProofOfInference</title>
<path fill="#b7e0ff" stroke="black" stroke-width="2" d="M620.38,-180C620.38,-180 458,-180 458,-180 452,-180 446,-174 446,-168 446,-168 446,-120 446,-120 446,-114 452,-108 458,-108 458,-108 620.38,-108 620.38,-108 626.38,-108 632.38,-114 632.38,-120 632.38,-120 632.38,-168 632.38,-168 632.38,-174 626.38,-180 620.38,-180"/>
<text text-anchor="middle" x="539.19" y="-148.2" font-family="Arial" font-size="14.00">ProofOfInference</text>
<text text-anchor="middle" x="539.19" y="-131.4" font-family="Arial" font-size="14.00">(AWS::Ethereum::Contract)</text>
</g>
<!-- ProofOfInference&#45;&gt;JoyToken -->
<g id="edge2" class="edge">
<title>ProofOfInference&#45;&gt;JoyToken</title>
<path fill="none" stroke="black" d="M487.24,-107.7C473.5,-98.37 458.54,-88.2 444.36,-78.56"/>
<polygon fill="black" stroke="black" points="446.66,-75.9 436.43,-73.17 442.73,-81.69 446.66,-75.9"/>
</g>
<!-- ProofOfInference&#45;&gt;ZKVerifier -->
<g id="edge1" class="edge">
<title>ProofOfInference&#45;&gt;ZKVerifier</title>
<path fill="none" stroke="black" d="M550.51,-107.7C553.06,-99.75 555.81,-91.19 558.48,-82.87"/>
<polygon fill="black" stroke="black" points="561.73,-84.17 561.46,-73.58 555.07,-82.04 561.73,-84.17"/>
</g>
<!-- ModelMarketplace -->
<g id="node5" class="node">
<title>ModelMarketplace</title>
<path fill="#e78f81" stroke="black" stroke-width="2" d="M429.38,-288C429.38,-288 267,-288 267,-288 261,-288 255,-282 255,-276 255,-276 255,-228 255,-228 255,-222 261,-216 267,-216 267,-216 429.38,-216 429.38,-216 435.38,-216 441.38,-222 441.38,-228 441.38,-228 441.38,-276 441.38,-276 441.38,-282 435.38,-288 429.38,-288"/>
<text text-anchor="middle" x="348.19" y="-256.2" font-family="Arial" font-size="14.00">ModelMarketplace</text>
<text text-anchor="middle" x="348.19" y="-239.4" font-family="Arial" font-size="14.00">(AWS::Ethereum::Contract)</text>
</g>
<!-- ModelMarketplace&#45;&gt;JoyToken -->
<g id="edge3" class="edge">
<title>ModelMarketplace&#45;&gt;JoyToken</title>
<path fill="none" stroke="black" d="M379.97,-215.83C387.79,-205.08 395.1,-192.71 399.19,-180 409.26,-148.72 404.76,-111.83 398,-83.36"/>
<polygon fill="black" stroke="black" points="401.46,-82.78 395.59,-73.96 394.68,-84.51 401.46,-82.78"/>
</g>
<!-- ModelMarketplace&#45;&gt;Identity -->
<g id="edge5" class="edge">
<title>ModelMarketplace&#45;&gt;Identity</title>
<path fill="none" stroke="black" d="M331.21,-215.7C327.29,-207.57 323.08,-198.8 318.99,-190.31"/>
<polygon fill="black" stroke="black" points="322.24,-189 314.75,-181.51 315.94,-192.03 322.24,-189"/>
</g>
<!-- ModelMarketplace&#45;&gt;ProofOfInference -->
<g id="edge4" class="edge">
<title>ModelMarketplace&#45;&gt;ProofOfInference</title>
<path fill="none" stroke="black" d="M412.06,-215.56C429.26,-206.01 448,-195.61 465.69,-185.79"/>
<polygon fill="black" stroke="black" points="467.02,-189.06 474.06,-181.14 463.62,-182.94 467.02,-189.06"/>
</g>
<!-- NodeCoordinator -->
<g id="node6" class="node">
<title>NodeCoordinator</title>
<path fill="#b7e0ff" stroke="black" stroke-width="2" d="M174.38,-180C174.38,-180 12,-180 12,-180 6,-180 0,-174 0,-168 0,-168 0,-120 0,-120 0,-114 6,-108 12,-108 12,-108 174.38,-108 174.38,-108 180.38,-108 186.38,-114 186.38,-120 186.38,-120 186.38,-168 186.38,-168 186.38,-174 180.38,-180 174.38,-180"/>
<text text-anchor="middle" x="93.19" y="-148.2" font-family="Arial" font-size="14.00">NodeCoordinator</text>
<text text-anchor="middle" x="93.19" y="-131.4" font-family="Arial" font-size="14.00">(AWS::Ethereum::Contract)</text>
</g>
<!-- NodeCoordinator&#45;&gt;JoyToken -->
<g id="edge6" class="edge">
<title>NodeCoordinator&#45;&gt;JoyToken</title>
<path fill="none" stroke="black" d="M186.54,-108.88C221.06,-96.26 260.06,-82.01 294.18,-69.54"/>
<polygon fill="black" stroke="black" points="294.99,-72.97 303.18,-66.25 292.58,-66.39 294.99,-72.97"/>
</g>
<!-- SovereignRPC -->
<g id="node7" class="node">
<title>SovereignRPC</title>
<path fill="#e78f81" stroke="black" stroke-width="2" d="M482.38,-396C482.38,-396 320,-396 320,-396 314,-396 308,-390 308,-384 308,-384 308,-336 308,-336 308,-330 314,-324 320,-324 320,-324 482.38,-324 482.38,-324 488.38,-324 494.38,-330 494.38,-336 494.38,-336 494.38,-384 494.38,-384 494.38,-390 488.38,-396 482.38,-396"/>
<text text-anchor="middle" x="401.19" y="-364.2" font-family="Arial" font-size="14.00">SovereignRPC</text>
<text text-anchor="middle" x="401.19" y="-347.4" font-family="Arial" font-size="14.00">(AWS::Ethereum::Contract)</text>
</g>
<!-- InferenceNode -->
<g id="node8" class="node">
<title>InferenceNode</title>
<path fill="#b7e0ff" stroke="black" stroke-width="2" d="M607.15,-288C607.15,-288 471.22,-288 471.22,-288 465.22,-288 459.22,-282 459.22,-276 459.22,-276 459.22,-228 459.22,-228 459.22,-222 465.22,-216 471.22,-216 471.22,-216 607.15,-216 607.15,-216 613.15,-216 619.15,-222 619.15,-228 619.15,-228 619.15,-276 619.15,-276 619.15,-282 613.15,-288 607.15,-288"/>
<text text-anchor="middle" x="539.19" y="-256.2" font-family="Arial" font-size="14.00">InferenceNode</text>
<text text-anchor="middle" x="539.19" y="-239.4" font-family="Arial" font-size="14.00">(Custom::PythonClass)</text>
</g>
<!-- InferenceNode&#45;&gt;ProofOfInference -->
<g id="edge7" class="edge">
<title>InferenceNode&#45;&gt;ProofOfInference</title>
<path fill="none" stroke="black" d="M539.19,-215.7C539.19,-207.93 539.19,-199.57 539.19,-191.43"/>
<polygon fill="black" stroke="black" points="542.69,-191.66 539.19,-181.66 535.69,-191.66 542.69,-191.66"/>
</g>
<!-- EdgeNode -->
<g id="node9" class="node">
<title>EdgeNode</title>
<path fill="#b7e0ff" stroke="black" stroke-width="2" d="M262.15,-396C262.15,-396 126.22,-396 126.22,-396 120.22,-396 114.22,-390 114.22,-384 114.22,-384 114.22,-336 114.22,-336 114.22,-330 120.22,-324 126.22,-324 126.22,-324 262.15,-324 262.15,-324 268.15,-324 274.15,-330 274.15,-336 274.15,-336 274.15,-384 274.15,-384 274.15,-390 268.15,-396 262.15,-396"/>
<text text-anchor="middle" x="194.19" y="-364.2" font-family="Arial" font-size="14.00">EdgeNode</text>
<text text-anchor="middle" x="194.19" y="-347.4" font-family="Arial" font-size="14.00">(Custom::PythonClass)</text>
</g>
<!-- EdgeNode&#45;&gt;NodeCoordinator -->
<g id="edge8" class="edge">
<title>EdgeNode&#45;&gt;NodeCoordinator</title>
<path fill="none" stroke="black" d="M177.51,-323.66C160.33,-287.26 133.49,-230.39 114.72,-190.62"/>
<polygon fill="black" stroke="black" points="117.97,-189.31 110.54,-181.76 111.64,-192.3 117.97,-189.31"/>
</g>
<!-- EdgeNode&#45;&gt;InferenceNode -->
<g id="edge9" class="edge">
<title>EdgeNode&#45;&gt;InferenceNode</title>
<path fill="none" stroke="black" d="M274.51,-331.43C282.81,-328.82 291.15,-326.29 299.19,-324 362.17,-306.03 382.33,-308.37 447.91,-288.56"/>
<polygon fill="black" stroke="black" points="448.87,-291.93 457.39,-285.63 446.81,-285.24 448.87,-291.93"/>
</g>
<!-- ZKProver -->
<g id="node10" class="node">
<title>ZKProver</title>
<path fill="#e6e6e6" stroke="black" stroke-width="2" d="M668.15,-396C668.15,-396 532.22,-396 532.22,-396 526.22,-396 520.22,-390 520.22,-384 520.22,-384 520.22,-336 520.22,-336 520.22,-330 526.22,-324 532.22,-324 532.22,-324 668.15,-324 668.15,-324 674.15,-324 680.15,-330 680.15,-336 680.15,-336 680.15,-384 680.15,-384 680.15,-390 674.15,-396 668.15,-396"/>
<text text-anchor="middle" x="600.19" y="-364.2" font-family="Arial" font-size="14.00">ZKProver</text>
<text text-anchor="middle" x="600.19" y="-347.4" font-family="Arial" font-size="14.00">(Custom::PythonClass)</text>
</g>
<!-- PermaNetDAORegistry -->
<g id="node11" class="node">
<title>PermaNetDAORegistry</title>
<path fill="#e6e6e6" stroke="black" stroke-width="2" d="M876.38,-396C876.38,-396 714,-396 714,-396 708,-396 702,-390 702,-384 702,-384 702,-336 702,-336 702,-330 708,-324 714,-324 714,-324 876.38,-324 876.38,-324 882.38,-324 888.38,-330 888.38,-336 888.38,-336 888.38,-384 888.38,-384 888.38,-390 882.38,-396 876.38,-396"/>
<text text-anchor="middle" x="795.19" y="-364.2" font-family="Arial" font-size="14.00">PermaNetDAORegistry</text>
<text text-anchor="middle" x="795.19" y="-347.4" font-family="Arial" font-size="14.00">(AWS::Ethereum::Contract)</text>
</g>
<!-- PermaNetDomainRegistry -->
<g id="node12" class="node">
<title>PermaNetDomainRegistry</title>
<path fill="#e6e6e6" stroke="black" stroke-width="2" d="M876.38,-288C876.38,-288 714,-288 714,-288 708,-288 702,-282 702,-276 702,-276 702,-228 702,-228 702,-222 708,-216 714,-216 714,-216 876.38,-216 876.38,-216 882.38,-216 888.38,-222 888.38,-228 888.38,-228 888.38,-276 888.38,-276 888.38,-282 882.38,-288 876.38,-288"/>
<text text-anchor="middle" x="795.19" y="-256.2" font-family="Arial" font-size="14.00">PermaNetDomainRegistry</text>
<text text-anchor="middle" x="795.19" y="-239.4" font-family="Arial" font-size="14.00">(AWS::Ethereum::Contract)</text>
</g>
<!-- PermaNetDAORegistry&#45;&gt;PermaNetDomainRegistry -->
<g id="edge10" class="edge">
<title>PermaNetDAORegistry&#45;&gt;PermaNetDomainRegistry</title>
<path fill="none" stroke="black" d="M795.19,-323.7C795.19,-315.93 795.19,-307.57 795.19,-299.43"/>
<polygon fill="black" stroke="black" points="798.69,-299.66 795.19,-289.66 791.69,-299.66 798.69,-299.66"/>
</g>
</g>
</svg>
